# File created by Blade
# Date/Time:  Tue Jan 27 18:02:00 2015
#---------------------------------------------------------
:version 1.10
:name HOM
:units
  mass 1.0
  length 1.000000
  angle deg
:documentation
     Acclaim Skeleton File
:root
   axis xyz
   order TX TY TZ RX RY RZ
   position 0.000000 0.000000 0.000000
   orientation 0 0 0
:bonedata
   begin
      id 1
      name Spine_dum
      direction 0.000000 1.000000 0.000000
      length 5.195262
      axis 0.0 0.0 0.0 xyz
   end
   begin
      id 2
      name LeftUpLeg_dum
      direction 1.000000 0.000000 0.000000
      length 3.351363
      axis 0.0 0.0 0.0 xyz
   end
   begin
      id 3
      name RightUpLeg_dum
      direction -1.000000 0.000000 0.000000
      length 3.351363
      axis 0.0 0.0 0.0 xyz
   end
   begin
      id 4
      name Spine
      direction 0.000000 1.000000 0.000000
      length 0.000000
      axis 0.0 0.0 0.0 xyz
      dof rx ry rz
   end
   begin
      id 5
      name Spine_dum1
      direction 0.000000 1.000000 0.000000
      length 15.653875
      axis 0.0 0.0 0.0 xyz
   end
   begin
      id 6
      name Spine_dum2
      direction 0.000000 1.000000 0.000000
      length 10.329768
      axis 0.0 0.0 0.0 xyz
   end
   begin
      id 7
      name Spine_dum3
      direction 0.000000 1.000000 0.000000
      length 10.329768
      axis 0.0 0.0 0.0 xyz
   end
   begin
      id 8
      name Head
      direction 0.000000 1.000000 0.000000
      length 4.527550
      axis 0.0 0.0 0.0 xyz
      dof rx ry rz
   end
   begin
      id 9
      name LeftShoulder
      direction 1.000000 0.000000 0.000000
      length 6.996006
      axis 0.0 0.0 -90.0 xyz
      dof rx ry rz
   end
   begin
      id 10
      name LeftArm
      direction 1.000000 0.000000 0.000000
      length 10.209302
      axis 0.0 0.0 -90.0 xyz
      dof rx ry rz
   end
   begin
      id 11
      name LeftForeArm
      direction 1.000000 0.000000 0.000000
      length 8.563163
      axis 0.0 0.0 -90.0 xyz
      dof ry rz rx
   end
   begin
      id 12
      name LeftHand
      direction 0.000000 0.000000 0.000000
      length 0.000000
      axis 0.0 0.0 -90.0 xyz
      dof rx ry rz
   end
   begin
      id 13
      name LeftHand_dum1
      direction 0.000000 0.000000 0.000000
      length 0.000000
      axis 0.0 0.0 -90.0 xyz
   end
   begin
      id 14
      name LeftHand_dum2
      direction 1.000000 0.000000 0.000000
      length 3.937000
      axis 0.0 0.0 -90.0 xyz
   end
   begin
      id 15
      name LeftHandThumb1
      direction 0.000000 0.000000 1.000000
      length 3.937000
      axis 0.0 0.0 -90.0 xyz
      dof rx rz ry
   end
   begin
      id 16
      name RightShoulder
      direction -1.000000 0.000000 0.000000
      length 6.996006
      axis 0.0 0.0 90.0 xyz
      dof rx ry rz
   end
   begin
      id 17
      name RightArm
      direction -1.000000 0.000000 0.000000
      length 10.209302
      axis 0.0 0.0 90.0 xyz
      dof rx ry rz
   end
   begin
      id 18
      name RightForeArm
      direction -1.000000 0.000000 0.000000
      length 8.563163
      axis 0.0 0.0 90.0 xyz
      dof ry rz rx
   end
   begin
      id 19
      name RightHand
      direction 0.000000 0.000000 0.000000
      length 0.000000
      axis 0.0 0.0 90.0 xyz
      dof rx ry rz
   end
   begin
      id 20
      name RightHand_dum1
      direction 0.000000 0.000000 0.000000
      length 0.000000
      axis 0.0 0.0 90.0 xyz
   end
   begin
      id 21
      name RightHand_dum2
      direction -1.000000 0.000000 0.000000
      length 3.937000
      axis 0.0 0.0 90.0 xyz
   end
   begin
      id 22
      name RightHandThumb1
      direction 0.000000 0.000000 1.000000
      length 3.937000
      axis 0.0 0.0 90.0 xyz
      dof rx rz ry
   end
   begin
      id 23
      name LeftUpLeg
      direction 0.000000 -1.000000 0.000000
      length 16.346831
      axis 0.0 0.0 0.0 xyz
      dof rx ry rz
   end
   begin
      id 24
      name LeftLeg
      direction 0.000000 -1.000000 0.000000
      length 13.959795
      axis 0.0 0.0 0.0 xyz
      dof rx ry rz
   end
   begin
      id 25
      name LeftFoot
      direction 0.000000 -0.258819 0.965926
      length 5.165550
      axis 15.0 0.0 0.0 xyz
      dof rx ry rz
   end
   begin
      id 26
      name LeftToeBase
      direction 0.000000 0.000000 1.000000
      length 2.952750
      axis 0.0 0.0 0.0 xyz
      dof rx ry rz
   end
   begin
      id 27
      name RightUpLeg
      direction 0.000000 -1.000000 0.000000
      length 16.346831
      axis 0.0 0.0 0.0 xyz
      dof rx ry rz
   end
   begin
      id 28
      name RightLeg
      direction 0.000000 -1.000000 0.000000
      length 13.959795
      axis 0.0 0.0 0.0 xyz
      dof rx ry rz
   end
   begin
      id 29
      name RightFoot
      direction 0.000000 -0.258819 0.965926
      length 5.165550
      axis 15.0 0.0 0.0 xyz
      dof rx ry rz
   end
   begin
      id 30
      name RightToeBase
      direction 0.000000 0.000000 1.000000
      length 2.952750
      axis 0.0 0.0 0.0 xyz
      dof rx ry rz
   end
:hierarchy
   begin
      root Spine_dum LeftUpLeg_dum RightUpLeg_dum
      Spine_dum Spine
      LeftUpLeg_dum LeftUpLeg
      RightUpLeg_dum RightUpLeg
      Spine Spine_dum1 Spine_dum2 Spine_dum3
      Spine_dum1 Head
      Spine_dum2 LeftShoulder
      Spine_dum3 RightShoulder
      LeftShoulder LeftArm
      LeftArm LeftForeArm
      LeftForeArm LeftHand
      LeftHand LeftHand_dum1 LeftHand_dum2
      LeftHand_dum1 LeftHandThumb1
      RightShoulder RightArm
      RightArm RightForeArm
      RightForeArm RightHand
      RightHand RightHand_dum1 RightHand_dum2
      RightHand_dum1 RightHandThumb1
      LeftUpLeg LeftLeg
      LeftLeg LeftFoot
      LeftFoot LeftToeBase
      RightUpLeg RightLeg
      RightLeg RightFoot
      RightFoot RightToeBase
   end

# File created by Blade
# Date/Time:  Tue Jan 27 18:01:49 2015
# Frame Rate: 120.000 fps
#------------------------------------------------------
:FULLY-SPECIFIED
:DEGREES
856
root -1.353563 31.943332 -5.989658 8.051344 28.490408 5.923459
Spine -7.978034 -1.997763 -3.513050
Head 5.616535 -3.078970 -8.451264
LeftShoulder -11.940919 14.189128 6.828991
LeftArm 23.558157 39.678823 -74.730669
LeftForeArm -1.465825 -0.000000 13.009829
LeftHand -11.123360 -0.000000 -5.929339
LeftHandThumb1 -26.253704 0.000000 33.147579
RightShoulder -16.563108 36.743859 -58.808154
RightArm 82.492316 39.035188 83.248315
RightForeArm 35.295376 -0.000000 92.960073
RightHand -3.782675 -0.000000 15.625405
RightHandThumb1 -24.326973 -0.000000 -32.862282
LeftUpLeg -3.413452 -12.923452 -0.760900
LeftLeg -0.290212 -0.000000 0.000000
LeftFoot -10.876096 8.986357 -23.348007
LeftToeBase 8.525656 -0.000000 -0.000000
RightUpLeg 5.293907 -15.765916 -3.702567
RightLeg -4.349272 -0.000000 0.000000
RightFoot -18.108436 -22.297274 12.781553
RightToeBase 5.351867 -0.000000 -0.000000
857
root -1.354059 31.940217 -5.982682 8.030606 28.493517 5.936327
Spine -8.002668 -2.076978 -3.499084
Head 5.736740 -2.996706 -8.433942
LeftShoulder -11.981611 14.174112 6.872192
LeftArm 23.491292 39.702556 -74.822171
LeftForeArm -1.485628 -0.000000 12.923539
LeftHand -11.122640 -0.000000 -5.915666
LeftHandThumb1 -26.253704 0.000000 33.147579
RightShoulder -16.670606 36.471719 -58.844025
RightArm 81.694005 38.761392 80.644928
RightForeArm 34.977289 -0.000000 91.649293
RightHand -3.689804 0.000000 15.926632
RightHandThumb1 -24.326973 -0.000000 -32.862282
LeftUpLeg -3.378137 -12.915927 -0.775352
LeftLeg -0.280752 -0.000000 0.000000
LeftFoot -10.903751 8.973998 -23.333965
LeftToeBase 8.489965 -0.000000 -0.000000
RightUpLeg 5.321434 -15.785257 -3.715021
RightLeg -4.324169 -0.000000 0.000000
RightFoot -18.166287 -22.295900 12.780406
RightToeBase 5.412578 -0.000000 -0.000000
858
root -1.354221 31.936044 -5.975065 7.994774 28.468708 5.939691
Spine -8.028896 -2.124951 -3.491157
Head 5.810945 -2.979877 -8.346272
LeftShoulder -12.013745 14.218560 6.928831
LeftArm 23.494320 39.693906 -74.904769
LeftForeArm -1.489899 -0.000000 12.826738
LeftHand -11.139773 -0.000000 -5.879342
LeftHandThumb1 -26.253704 0.000000 33.147579
RightShoulder -16.708674 36.317317 -58.838168
RightArm 80.785924 38.475951 77.896928
RightForeArm 34.536381 -0.000000 90.410402
RightHand -3.887343 -0.000000 16.159953
RightHandThumb1 -24.326973 -0.000000 -32.862282
LeftUpLeg -3.309444 -12.996829 -0.771910
LeftLeg -0.314169 -0.000000 0.000000
LeftFoot -10.966109 9.004517 -23.424926
LeftToeBase 8.528775 -0.000000 -0.000000
RightUpLeg 5.383799 -15.706819 -3.728659
RightLeg -4.350628 -0.000000 0.000000
RightFoot -18.210183 -22.313004 12.827671
RightToeBase 5.404574 -0.000000 -0.000000
859
root -1.353544 31.933024 -5.967457 7.941620 28.443381 5.951904
Spine -8.026978 -2.194998 -3.473054
Head 5.817880 -2.926666 -8.341847
LeftShoulder -12.079358 14.235445 6.944593
LeftArm 23.473237 39.690844 -74.964062
LeftForeArm -1.505262 -0.000000 12.760060
LeftHand -11.132436 -0.000000 -5.870895
LeftHandThumb1 -26.253704 0.000000 33.147579
RightShoulder -16.746683 36.189173 -58.886440
RightArm 79.864187 38.131358 75.221313
RightForeArm 34.137564 -0.000000 89.263503
RightHand -3.858865 0.000000 16.894791
RightHandThumb1 -24.326973 -0.000000 -32.862282
LeftUpLeg -3.225307 -13.064003 -0.786213
LeftLeg -0.336403 -0.000000 0.000000
LeftFoot -11.018390 9.050078 -23.464865
LeftToeBase 8.547025 -0.000000 -0.000000
RightUpLeg 5.460974 -15.679648 -3.756136
RightLeg -4.364967 -0.000000 0.000000
RightFoot -18.215835 -22.332621 12.779089
RightToeBase 5.409043 -0.000000 -0.000000
